<svg xmlns="http://www.w3.org/2000/svg" width="49.782" height="49.782" viewBox="0 0 49.782 49.782">
  <path id="Path_1" data-name="Path 1" d="M39.324,32.725l6.09-6.06a7.184,7.184,0,0,0,1.91,3.4,7.323,7.323,0,0,0,10.317,0,7.219,7.219,0,0,0,0-10.262,7.323,7.323,0,0,0-10.317,0L33.783,33.27l-.284-.288L47.035,19.524A7.226,7.226,0,0,0,47.03,9.267a7.319,7.319,0,0,0-10.317-.005,7.206,7.206,0,0,0,3.424,12.146l-6.1,6.06s-.076.081-3.043,3.03l-1.91-1.9,6.659-6.621a.6.6,0,0,0-.848-.838l-6.649,6.621-.7-.7,6.664-6.621a.586.586,0,0,0-.015-.828.6.6,0,0,0-.833-.015L26.7,26.22l-.7-.692,6.659-6.621a.6.6,0,0,0-.848-.838l-6.659,6.616-.7-.692,6.659-6.626a.6.6,0,0,0-.843-.843l-6.664,6.631-.7-.7,6.654-6.626a.595.595,0,0,0-.843-.838l-6.664,6.621-.7-.7L28.017,14.3A.576.576,0,0,0,28,13.474a.588.588,0,0,0-.828-.015l-6.659,6.621-.7-.7,6.659-6.621a.582.582,0,0,0-.015-.828.59.59,0,0,0-.833-.015l-6.664,6.626-.7-.7,6.664-6.626a.58.58,0,0,0-.015-.823.594.594,0,0,0-.833-.015L17.421,17l-.7-.692,6.664-6.626a.58.58,0,0,0-.01-.823.59.59,0,0,0-.833-.015l-6.664,6.621-.7-.7,6.654-6.616a.586.586,0,0,0-.015-.828.594.594,0,0,0-.833-.015L10.264,17.963a.509.509,0,0,0-.1.7l16.4,16.3A128.619,128.619,0,0,0,10,56.916s9.24-4.237,21.812-16.726L48.539,56.82a.513.513,0,0,0,.706-.106L52.9,53.082a.511.511,0,0,0,.107-.7L36.287,35.755c2.032-2.025,3.043-3.03,3.038-3.03Zm10.357-10.57a3.977,3.977,0,0,1,5.6,0,3.917,3.917,0,0,1,0,5.565,3.977,3.977,0,0,1-5.6,0,3.922,3.922,0,0,1,0-5.565Zm-1.646,6.656a.394.394,0,0,1,.554,0,5.535,5.535,0,0,0,7.787,0,5.44,5.44,0,0,0,0-7.737.389.389,0,0,1,0-.55.394.394,0,0,1,.554,0,6.223,6.223,0,0,1,0,8.843,6.323,6.323,0,0,1-8.894,0,.4.4,0,0,1,0-.556Zm-8.96-17.2a3.968,3.968,0,0,1,5.6,0,3.922,3.922,0,0,1,0,5.565,3.977,3.977,0,0,1-5.6,0A3.913,3.913,0,0,1,39.075,11.61Zm-1.646,7.2a.389.389,0,0,1,0-.55.394.394,0,0,1,.554,0,5.537,5.537,0,0,0,7.787,0,5.458,5.458,0,0,0,0-7.737.389.389,0,0,1,.549-.55,6.247,6.247,0,0,1-4.445,10.671A6.3,6.3,0,0,1,37.43,18.812ZM27.118,34.4l-15.9-15.807a.389.389,0,0,1,0-.55.394.394,0,0,1,.554,0l15.9,15.807c-.183.182-.366.364-.549.55Zm2.215,4.616a.948.948,0,0,1-1.331,0,.938.938,0,0,1,0-1.318.948.948,0,0,1,1.331,0A.938.938,0,0,1,29.333,39.013ZM48.5,54.557a.389.389,0,0,1,0,.55.4.4,0,0,1-.274.116.377.377,0,0,1-.279-.116L32.36,39.614c.188-.182.376-.359.559-.54L48.5,54.557Z" transform="translate(-10 -7.137)" fill="#fff"/>
</svg>
